Coordinates
version=1
nRows=8
nColumns=42
inDegrees=yes

Units are S.I. units (second, meters, Newtons, ...)
If the header above contains a line with 'inDegrees', this indicates whether rotational values are in degrees (yes) or radians (no).

endheader
time	pelvis_tilt	pelvis_list	pelvis_rotation	pelvis_tx	pelvis_ty	pelvis_tz	hip_flexion_r	hip_adduction_r	hip_rotation_r	knee_angle_r	knee_adduction_r	knee_angle_r_beta	ankle_angle_r	subtalar_angle_r	mtp_angle_r	hip_flexion_l	hip_adduction_l	hip_rotation_l	knee_angle_l	knee_adduction_l	knee_angle_l_beta	ankle_angle_l	subtalar_angle_l	mtp_angle_l	lumbar_extension	lumbar_bending	lumbar_rotation	arm_flex_r	arm_add_r	arm_rot_r	elbow_flex_r	pro_sup_r	wrist_flex_r	wrist_dev_r	arm_flex_l	arm_add_l	arm_rot_l	elbow_flex_l	pro_sup_l	wrist_flex_l	wrist_dev_l
      0.81000000	      7.97464682	     -1.74774091	     -0.35036796	     -0.21549172	      0.86442573	     -0.29669292	    -28.87360801	      5.83070097	      0.23821940	      9.72849864	     -3.58002492	      0.16979433	     20.66914212	     15.04766462	     -7.61373425	     16.57242493	     -4.22679509	    -21.49793036	     10.63130866	      4.30210827	      0.18555134	      9.32966793	     13.63912368	     -7.61373425	    -18.79235547	     -1.49513718	      3.94351313	     -1.58543680	     -2.91930819	    -15.17487556	     58.32894516	     90.00000001	      0.00000000	      0.00000000	     -5.02504904	     -4.97887838	    -22.48840274	     35.49983519	     90.00000001	      0.00000000	      0.00000000
      0.82000000	      7.60496146	     -1.69954441	     -0.42347381	     -0.20327847	      0.86257584	     -0.29679509	    -29.01891784	      5.67158544	     -0.10216226	     10.41082004	     -3.56518171	      0.18170309	     20.55264005	     15.06957941	     -7.61185091	     17.09037763	     -3.88928189	    -21.19555579	     11.07495195	      4.08004458	      0.19329438	      9.32893588	     13.58120911	     -7.61185091	    -18.25537937	     -1.57677206	      4.02516179	     -1.65398776	     -2.90182733	    -15.15838238	     58.05598025	     90.00000001	      0.00000000	      0.00000000	     -5.25399941	     -5.09574761	    -22.51844560	     35.16464255	     90.00000001	      0.00000000	      0.00000000
      0.83000000	      7.25174276	     -1.45077918	     -0.49954256	     -0.19075620	      0.86075517	     -0.29709518	    -29.13554426	      5.23345311	     -0.76461045	     11.21834784	     -3.44990696	      0.19579711	     20.51244995	     15.33679121	     -7.60928506	     17.59836565	     -3.30920826	    -20.78703156	     11.88426838	      3.70989218	      0.20741961	      9.30735136	     13.24688829	     -7.60928506	    -17.71115319	     -1.86003194	      4.05024175	     -1.76940440	     -2.85204476	    -15.20933445	     57.79725926	     90.00000001	      0.00000000	      0.00000000	     -5.48468926	     -5.17746899	    -22.75181729	     34.84422232	     90.00000001	      0.00000000	      0.00000000
      0.84000000	      6.91592833	     -1.09183135	     -0.60345047	     -0.17808661	      0.85903629	     -0.29747525	    -29.21292104	      4.63925088	     -1.54018609	     12.13075899	     -3.34219296	      0.21172169	     20.43697353	     15.75693388	     -7.60677443	     18.07991426	     -2.58039690	    -20.23814043	     12.94548612	      3.18952160	      0.22594136	      9.15665233	     12.67583346	     -7.60677443	    -17.17863642	     -2.26909116	      4.09290422	     -1.93114953	     -2.80504919	    -15.28230553	     57.51478706	     90.00000001	      0.00000000	      0.00000000	     -5.69262814	     -5.26299680	    -23.05013752	     34.59898543	     90.00000001	      0.00000000	      0.00000000
      0.85000000	      6.63319748	     -0.68103311	     -0.70183826	     -0.16536789	      0.85753377	     -0.29788502	    -29.32039325	      3.99158348	     -2.22963654	     13.09529717	     -3.22217226	      0.22855605	     20.19635280	     16.03606319	     -7.60495083	     18.56071391	     -1.76758336	    -19.61641818	     14.30427233	      2.46685619	      0.24965665	      8.91128512	     11.97090354	     -7.60495083	    -16.73434011	     -2.73691764	      4.09767402	     -2.08735716	     -2.74382156	    -15.37142960	     57.20694780	     90.00000001	      0.00000000	      0.00000000	     -5.90853775	     -5.35044680	    -23.27938009	     34.35870874	     90.00000001	      0.00000000	      0.00000000
      0.86000000	      6.53702646	      0.41180815	     -0.85252255	     -0.15220008	      0.85629815	     -0.29879164	    -29.26266199	      2.34534097	     -4.94006991	     14.78099725	     -2.99034142	      0.25797707	     20.56943258	     19.00211738	     -7.59569920	     18.59337509	     -0.11302351	    -18.67134693	     15.31072233	      1.77592391	      0.26722252	      8.21378940	     10.13265850	     -7.59569920	    -16.44787805	     -3.92065661	      4.01960973	     -2.32788680	     -2.63911616	    -15.52987991	     56.86196908	     90.00000001	      0.00000000	      0.00000000	     -6.05945651	     -5.36053352	    -24.14773112	     34.20919024	     90.00000001	      0.00000000	      0.00000000
      0.87000000	      6.26563411	      0.95259362	     -0.89434344	     -0.13930363	      0.85518692	     -0.29927570	    -29.30256836	      1.58340655	     -5.52212323	     15.89400174	     -2.89504407	      0.27740266	     19.96438535	     18.78293756	     -7.59366640	     19.20141283	      0.75077801	    -18.09059783	     17.27206538	      1.02292441	      0.30145441	      7.97042505	      9.13278943	     -7.59366640	    -16.03074277	     -4.53421343	      4.00473880	     -2.54694077	     -2.54681007	    -15.67190259	     56.43137258	     90.00000001	      0.00000000	      0.00000000	     -6.23852274	     -5.49432419	    -24.19507055	     34.06117495	     90.00000001	      0.00000000	      0.00000000
      0.88000000	      6.10239477	      1.55949384	     -0.95116080	     -0.12637380	      0.85446718	     -0.29977710	    -29.36664429	      0.68206807	     -5.97762588	     17.16894005	     -2.68370169	      0.29965453	     19.15581645	     18.67232063	     -7.59272779	     19.67662119	      1.63222850	    -17.39770792	     19.31404103	      0.36009279	      0.33709361	      7.83162071	      8.13806658	     -7.59272779	    -15.75529388	     -5.22553614	      3.96617056	     -2.73809348	     -2.44623581	    -15.84143022	     55.96924933	     90.00000001	      0.00000000	      0.00000000	     -6.38079311	     -5.61878637	    -24.31525535	     33.91646917	     90.00000001	      0.00000000	      0.00000000
